<?xml version="1.0" encoding="UTF-8" standalone="no"?>
<!DOCTYPE svg PUBLIC "-//W3C//DTD SVG 1.1//EN" "http://www.w3.org/Graphics/SVG/1.1/DTD/svg11.dtd">
<svg width="100%" height="100%" viewBox="0 0 3000 1650" version="1.1" xmlns="http://www.w3.org/2000/svg" xmlns:xlink="http://www.w3.org/1999/xlink" xml:space="preserve" xmlns:serif="http://www.serif.com/" style="fill-rule:evenodd;clip-rule:evenodd;stroke-linejoin:round;stroke-miterlimit:2;">
    <g transform="matrix(1,0,0,1,-4.54081e-13,-76.6523)">
        <g id="Keyboard" transform="matrix(0.999327,0,0,1.0013,1.00942,0.986646)">
            <rect x="-1.01" y="75.567" width="3002.02" height="1647.86" style="fill:none;"/>
            <g id="Layer1" transform="matrix(3.74474,0,0,3.73736,-52.9303,-106.461)">
                <g id="Keys">
                    <g id="Space-Bar" serif:id="Space Bar" transform="matrix(7.25,0,0,1.02174,-325.803,240.895)">
                        <path d="M124,34.58L124,59.42C124,65.259 123.332,70 122.509,70L81.491,70C80.668,70 80,65.259 80,59.42L80,34.58C80,28.741 80.668,24 81.491,24L122.509,24C123.332,24 124,28.741 124,34.58Z" style="fill:rgb(119,171,255);"/>
                        <path d="M124.049,34.58L124.049,59.42C124.049,65.452 123.359,70.349 122.509,70.349L81.491,70.349C80.641,70.349 79.951,65.452 79.951,59.42L79.951,34.58C79.951,28.548 80.641,23.651 81.491,23.651L122.509,23.651C123.359,23.651 124.049,28.548 124.049,34.58ZM124,34.58C124,28.741 123.332,24 122.509,24L81.491,24C80.668,24 80,28.741 80,34.58L80,59.42C80,65.259 80.668,70 81.491,70L122.509,70C123.332,70 124,65.259 124,59.42L124,34.58Z"/>
                    </g>
                    <g id="Fourth-Row" serif:id="Fourth Row" transform="matrix(1,0,0,1,22.1965,187.916)">
                        <g transform="matrix(1.06818,0,0,1.02174,40.5455,-1.02174)">
                            <path d="M124,34.58L124,59.42C124,65.259 119.465,70 113.88,70L90.12,70C84.535,70 80,65.259 80,59.42L80,34.58C80,28.741 84.535,24 90.12,24L113.88,24C119.465,24 124,28.741 124,34.58Z" style="fill:rgb(237,51,69);"/>
                            <path d="M124.334,34.58L124.334,59.42C124.334,65.452 119.649,70.349 113.88,70.349L90.12,70.349C84.351,70.349 79.666,65.452 79.666,59.42L79.666,34.58C79.666,28.548 84.351,23.651 90.12,23.651L113.88,23.651C119.649,23.651 124.334,28.548 124.334,34.58ZM124,34.58C124,28.741 119.465,24 113.88,24L90.12,24C84.535,24 80,28.741 80,34.58L80,59.42C80,65.259 84.535,70 90.12,70L113.88,70C119.465,70 124,65.259 124,59.42L124,34.58Z"/>
                        </g>
                        <g transform="matrix(1.06818,0,0,1.02174,94.5455,-1.02174)">
                            <path d="M124,34.58L124,59.42C124,65.259 119.465,70 113.88,70L90.12,70C84.535,70 80,65.259 80,59.42L80,34.58C80,28.741 84.535,24 90.12,24L113.88,24C119.465,24 124,28.741 124,34.58Z" style="fill:rgb(250,167,29);"/>
                            <path d="M124.334,34.58L124.334,59.42C124.334,65.452 119.649,70.349 113.88,70.349L90.12,70.349C84.351,70.349 79.666,65.452 79.666,59.42L79.666,34.58C79.666,28.548 84.351,23.651 90.12,23.651L113.88,23.651C119.649,23.651 124.334,28.548 124.334,34.58ZM124,34.58C124,28.741 119.465,24 113.88,24L90.12,24C84.535,24 80,28.741 80,34.58L80,59.42C80,65.259 84.535,70 90.12,70L113.88,70C119.465,70 124,65.259 124,59.42L124,34.58Z"/>
                        </g>
                        <g transform="matrix(1.06818,0,0,1.02174,148.545,-1.02174)">
                            <path d="M124,34.58L124,59.42C124,65.259 119.465,70 113.88,70L90.12,70C84.535,70 80,65.259 80,59.42L80,34.58C80,28.741 84.535,24 90.12,24L113.88,24C119.465,24 124,28.741 124,34.58Z" style="fill:rgb(112,194,123);"/>
                            <path d="M124.334,34.58L124.334,59.42C124.334,65.452 119.649,70.349 113.88,70.349L90.12,70.349C84.351,70.349 79.666,65.452 79.666,59.42L79.666,34.58C79.666,28.548 84.351,23.651 90.12,23.651L113.88,23.651C119.649,23.651 124.334,28.548 124.334,34.58ZM124,34.58C124,28.741 119.465,24 113.88,24L90.12,24C84.535,24 80,28.741 80,34.58L80,59.42C80,65.259 84.535,70 90.12,70L113.88,70C119.465,70 124,65.259 124,59.42L124,34.58Z"/>
                        </g>
                        <g transform="matrix(1.06818,0,0,1.02174,202.545,-1.02174)">
                            <path d="M124,34.58L124,59.42C124,65.259 119.465,70 113.88,70L90.12,70C84.535,70 80,65.259 80,59.42L80,34.58C80,28.741 84.535,24 90.12,24L113.88,24C119.465,24 124,28.741 124,34.58Z" style="fill:rgb(0,175,235);"/>
                            <path d="M124.334,34.58L124.334,59.42C124.334,65.452 119.649,70.349 113.88,70.349L90.12,70.349C84.351,70.349 79.666,65.452 79.666,59.42L79.666,34.58C79.666,28.548 84.351,23.651 90.12,23.651L113.88,23.651C119.649,23.651 124.334,28.548 124.334,34.58ZM124,34.58C124,28.741 119.465,24 113.88,24L90.12,24C84.535,24 80,28.741 80,34.58L80,59.42C80,65.259 84.535,70 90.12,70L113.88,70C119.465,70 124,65.259 124,59.42L124,34.58Z"/>
                        </g>
                        <g transform="matrix(1.06818,0,0,1.02174,256.545,-1.02174)">
                            <path d="M124,34.58L124,59.42C124,65.259 119.465,70 113.88,70L90.12,70C84.535,70 80,65.259 80,59.42L80,34.58C80,28.741 84.535,24 90.12,24L113.88,24C119.465,24 124,28.741 124,34.58Z" style="fill:rgb(0,175,235);"/>
                            <path d="M124.334,34.58L124.334,59.42C124.334,65.452 119.649,70.349 113.88,70.349L90.12,70.349C84.351,70.349 79.666,65.452 79.666,59.42L79.666,34.58C79.666,28.548 84.351,23.651 90.12,23.651L113.88,23.651C119.649,23.651 124.334,28.548 124.334,34.58ZM124,34.58C124,28.741 119.465,24 113.88,24L90.12,24C84.535,24 80,28.741 80,34.58L80,59.42C80,65.259 84.535,70 90.12,70L113.88,70C119.465,70 124,65.259 124,59.42L124,34.58Z"/>
                        </g>
                        <g transform="matrix(1.06818,0,0,1.02174,310.545,-1.02174)">
                            <path d="M124,34.58L124,59.42C124,65.259 119.465,70 113.88,70L90.12,70C84.535,70 80,65.259 80,59.42L80,34.58C80,28.741 84.535,24 90.12,24L113.88,24C119.465,24 124,28.741 124,34.58Z" style="fill:rgb(89,133,191);"/>
                            <path d="M124.334,34.58L124.334,59.42C124.334,65.452 119.649,70.349 113.88,70.349L90.12,70.349C84.351,70.349 79.666,65.452 79.666,59.42L79.666,34.58C79.666,28.548 84.351,23.651 90.12,23.651L113.88,23.651C119.649,23.651 124.334,28.548 124.334,34.58ZM124,34.58C124,28.741 119.465,24 113.88,24L90.12,24C84.535,24 80,28.741 80,34.58L80,59.42C80,65.259 84.535,70 90.12,70L113.88,70C119.465,70 124,65.259 124,59.42L124,34.58Z"/>
                        </g>
                        <g transform="matrix(1.06818,0,0,1.02174,364.545,-1.02174)">
                            <path d="M124,34.58L124,59.42C124,65.259 119.465,70 113.88,70L90.12,70C84.535,70 80,65.259 80,59.42L80,34.58C80,28.741 84.535,24 90.12,24L113.88,24C119.465,24 124,28.741 124,34.58Z" style="fill:rgb(89,133,191);"/>
                            <path d="M124.334,34.58L124.334,59.42C124.334,65.452 119.649,70.349 113.88,70.349L90.12,70.349C84.351,70.349 79.666,65.452 79.666,59.42L79.666,34.58C79.666,28.548 84.351,23.651 90.12,23.651L113.88,23.651C119.649,23.651 124.334,28.548 124.334,34.58ZM124,34.58C124,28.741 119.465,24 113.88,24L90.12,24C84.535,24 80,28.741 80,34.58L80,59.42C80,65.259 84.535,70 90.12,70L113.88,70C119.465,70 124,65.259 124,59.42L124,34.58Z"/>
                        </g>
                        <g transform="matrix(1.06818,0,0,1.02174,418.545,-1.02174)">
                            <path d="M124,34.58L124,59.42C124,65.259 119.465,70 113.88,70L90.12,70C84.535,70 80,65.259 80,59.42L80,34.58C80,28.741 84.535,24 90.12,24L113.88,24C119.465,24 124,28.741 124,34.58Z" style="fill:rgb(151,214,245);"/>
                            <path d="M124.334,34.58L124.334,59.42C124.334,65.452 119.649,70.349 113.88,70.349L90.12,70.349C84.351,70.349 79.666,65.452 79.666,59.42L79.666,34.58C79.666,28.548 84.351,23.651 90.12,23.651L113.88,23.651C119.649,23.651 124.334,28.548 124.334,34.58ZM124,34.58C124,28.741 119.465,24 113.88,24L90.12,24C84.535,24 80,28.741 80,34.58L80,59.42C80,65.259 84.535,70 90.12,70L113.88,70C119.465,70 124,65.259 124,59.42L124,34.58Z"/>
                        </g>
                        <g transform="matrix(1.06818,0,0,1.02174,472.545,-1.02174)">
                            <path d="M124,34.58L124,59.42C124,65.259 119.465,70 113.88,70L90.12,70C84.535,70 80,65.259 80,59.42L80,34.58C80,28.741 84.535,24 90.12,24L113.88,24C119.465,24 124,28.741 124,34.58Z" style="fill:rgb(255,232,160);"/>
                            <path d="M124.334,34.58L124.334,59.42C124.334,65.452 119.649,70.349 113.88,70.349L90.12,70.349C84.351,70.349 79.666,65.452 79.666,59.42L79.666,34.58C79.666,28.548 84.351,23.651 90.12,23.651L113.88,23.651C119.649,23.651 124.334,28.548 124.334,34.58ZM124,34.58C124,28.741 119.465,24 113.88,24L90.12,24C84.535,24 80,28.741 80,34.58L80,59.42C80,65.259 84.535,70 90.12,70L113.88,70C119.465,70 124,65.259 124,59.42L124,34.58Z"/>
                        </g>
                        <g transform="matrix(1.06818,0,0,1.02174,526.545,-1.02174)">
                            <path d="M124,34.58L124,59.42C124,65.259 119.465,70 113.88,70L90.12,70C84.535,70 80,65.259 80,59.42L80,34.58C80,28.741 84.535,24 90.12,24L113.88,24C119.465,24 124,28.741 124,34.58Z" style="fill:rgb(189,224,191);"/>
                            <path d="M124.334,34.58L124.334,59.42C124.334,65.452 119.649,70.349 113.88,70.349L90.12,70.349C84.351,70.349 79.666,65.452 79.666,59.42L79.666,34.58C79.666,28.548 84.351,23.651 90.12,23.651L113.88,23.651C119.649,23.651 124.334,28.548 124.334,34.58ZM124,34.58C124,28.741 119.465,24 113.88,24L90.12,24C84.535,24 80,28.741 80,34.58L80,59.42C80,65.259 84.535,70 90.12,70L113.88,70C119.465,70 124,65.259 124,59.42L124,34.58Z"/>
                        </g>
                    </g>
                    <g id="Third-Row" serif:id="Third Row" transform="matrix(1,0,0,1,48.1965,133.916)">
                        <g transform="matrix(1.06818,0,0,1.02174,-13.4545,-1.02174)">
                            <path d="M124,34.58L124,59.42C124,65.259 119.465,70 113.88,70L90.12,70C84.535,70 80,65.259 80,59.42L80,34.58C80,28.741 84.535,24 90.12,24L113.88,24C119.465,24 124,28.741 124,34.58Z" style="fill:rgb(237,51,69);"/>
                            <path d="M124.334,34.58L124.334,59.42C124.334,65.452 119.649,70.349 113.88,70.349L90.12,70.349C84.351,70.349 79.666,65.452 79.666,59.42L79.666,34.58C79.666,28.548 84.351,23.651 90.12,23.651L113.88,23.651C119.649,23.651 124.334,28.548 124.334,34.58ZM124,34.58C124,28.741 119.465,24 113.88,24L90.12,24C84.535,24 80,28.741 80,34.58L80,59.42C80,65.259 84.535,70 90.12,70L113.88,70C119.465,70 124,65.259 124,59.42L124,34.58Z"/>
                        </g>
                        <g transform="matrix(1.06818,0,0,1.02174,40.5455,-1.02174)">
                            <path d="M124,34.58L124,59.42C124,65.259 119.465,70 113.88,70L90.12,70C84.535,70 80,65.259 80,59.42L80,34.58C80,28.741 84.535,24 90.12,24L113.88,24C119.465,24 124,28.741 124,34.58Z" style="fill:rgb(250,167,29);"/>
                            <path d="M124.334,34.58L124.334,59.42C124.334,65.452 119.649,70.349 113.88,70.349L90.12,70.349C84.351,70.349 79.666,65.452 79.666,59.42L79.666,34.58C79.666,28.548 84.351,23.651 90.12,23.651L113.88,23.651C119.649,23.651 124.334,28.548 124.334,34.58ZM124,34.58C124,28.741 119.465,24 113.88,24L90.12,24C84.535,24 80,28.741 80,34.58L80,59.42C80,65.259 84.535,70 90.12,70L113.88,70C119.465,70 124,65.259 124,59.42L124,34.58Z"/>
                        </g>
                        <g transform="matrix(1.06818,0,0,1.02174,94.5455,-1.02174)">
                            <path d="M124,34.58L124,59.42C124,65.259 119.465,70 113.88,70L90.12,70C84.535,70 80,65.259 80,59.42L80,34.58C80,28.741 84.535,24 90.12,24L113.88,24C119.465,24 124,28.741 124,34.58Z" style="fill:rgb(112,194,123);"/>
                            <path d="M124.334,34.58L124.334,59.42C124.334,65.452 119.649,70.349 113.88,70.349L90.12,70.349C84.351,70.349 79.666,65.452 79.666,59.42L79.666,34.58C79.666,28.548 84.351,23.651 90.12,23.651L113.88,23.651C119.649,23.651 124.334,28.548 124.334,34.58ZM124,34.58C124,28.741 119.465,24 113.88,24L90.12,24C84.535,24 80,28.741 80,34.58L80,59.42C80,65.259 84.535,70 90.12,70L113.88,70C119.465,70 124,65.259 124,59.42L124,34.58Z"/>
                        </g>
                        <g transform="matrix(1.06818,0,0,1.02174,148.545,-1.02174)">
                            <path d="M124,34.58L124,59.42C124,65.259 119.465,70 113.88,70L90.12,70C84.535,70 80,65.259 80,59.42L80,34.58C80,28.741 84.535,24 90.12,24L113.88,24C119.465,24 124,28.741 124,34.58Z" style="fill:rgb(0,175,235);"/>
                            <path d="M124.334,34.58L124.334,59.42C124.334,65.452 119.649,70.349 113.88,70.349L90.12,70.349C84.351,70.349 79.666,65.452 79.666,59.42L79.666,34.58C79.666,28.548 84.351,23.651 90.12,23.651L113.88,23.651C119.649,23.651 124.334,28.548 124.334,34.58ZM124,34.58C124,28.741 119.465,24 113.88,24L90.12,24C84.535,24 80,28.741 80,34.58L80,59.42C80,65.259 84.535,70 90.12,70L113.88,70C119.465,70 124,65.259 124,59.42L124,34.58Z"/>
                        </g>
                        <g transform="matrix(1.06818,0,0,1.02174,202.545,-1.02174)">
                            <path d="M124,34.58L124,59.42C124,65.259 119.465,70 113.88,70L90.12,70C84.535,70 80,65.259 80,59.42L80,34.58C80,28.741 84.535,24 90.12,24L113.88,24C119.465,24 124,28.741 124,34.58Z" style="fill:rgb(0,175,235);"/>
                            <path d="M124.334,34.58L124.334,59.42C124.334,65.452 119.649,70.349 113.88,70.349L90.12,70.349C84.351,70.349 79.666,65.452 79.666,59.42L79.666,34.58C79.666,28.548 84.351,23.651 90.12,23.651L113.88,23.651C119.649,23.651 124.334,28.548 124.334,34.58ZM124,34.58C124,28.741 119.465,24 113.88,24L90.12,24C84.535,24 80,28.741 80,34.58L80,59.42C80,65.259 84.535,70 90.12,70L113.88,70C119.465,70 124,65.259 124,59.42L124,34.58Z"/>
                        </g>
                        <g transform="matrix(1.06818,0,0,1.02174,256.545,-1.02174)">
                            <path d="M124,34.58L124,59.42C124,65.259 119.465,70 113.88,70L90.12,70C84.535,70 80,65.259 80,59.42L80,34.58C80,28.741 84.535,24 90.12,24L113.88,24C119.465,24 124,28.741 124,34.58Z" style="fill:rgb(89,133,191);"/>
                            <path d="M124.334,34.58L124.334,59.42C124.334,65.452 119.649,70.349 113.88,70.349L90.12,70.349C84.351,70.349 79.666,65.452 79.666,59.42L79.666,34.58C79.666,28.548 84.351,23.651 90.12,23.651L113.88,23.651C119.649,23.651 124.334,28.548 124.334,34.58ZM124,34.58C124,28.741 119.465,24 113.88,24L90.12,24C84.535,24 80,28.741 80,34.58L80,59.42C80,65.259 84.535,70 90.12,70L113.88,70C119.465,70 124,65.259 124,59.42L124,34.58Z"/>
                        </g>
                        <g transform="matrix(1.06818,0,0,1.02174,310.545,-1.02174)">
                            <path d="M124,34.58L124,59.42C124,65.259 119.465,70 113.88,70L90.12,70C84.535,70 80,65.259 80,59.42L80,34.58C80,28.741 84.535,24 90.12,24L113.88,24C119.465,24 124,28.741 124,34.58Z" style="fill:rgb(89,133,191);"/>
                            <path d="M124.334,34.58L124.334,59.42C124.334,65.452 119.649,70.349 113.88,70.349L90.12,70.349C84.351,70.349 79.666,65.452 79.666,59.42L79.666,34.58C79.666,28.548 84.351,23.651 90.12,23.651L113.88,23.651C119.649,23.651 124.334,28.548 124.334,34.58ZM124,34.58C124,28.741 119.465,24 113.88,24L90.12,24C84.535,24 80,28.741 80,34.58L80,59.42C80,65.259 84.535,70 90.12,70L113.88,70C119.465,70 124,65.259 124,59.42L124,34.58Z"/>
                        </g>
                        <g transform="matrix(1.06818,0,0,1.02174,364.545,-1.02174)">
                            <path d="M124,34.58L124,59.42C124,65.259 119.465,70 113.88,70L90.12,70C84.535,70 80,65.259 80,59.42L80,34.58C80,28.741 84.535,24 90.12,24L113.88,24C119.465,24 124,28.741 124,34.58Z" style="fill:rgb(151,214,245);"/>
                            <path d="M124.334,34.58L124.334,59.42C124.334,65.452 119.649,70.349 113.88,70.349L90.12,70.349C84.351,70.349 79.666,65.452 79.666,59.42L79.666,34.58C79.666,28.548 84.351,23.651 90.12,23.651L113.88,23.651C119.649,23.651 124.334,28.548 124.334,34.58ZM124,34.58C124,28.741 119.465,24 113.88,24L90.12,24C84.535,24 80,28.741 80,34.58L80,59.42C80,65.259 84.535,70 90.12,70L113.88,70C119.465,70 124,65.259 124,59.42L124,34.58Z"/>
                        </g>
                        <g transform="matrix(1.06818,0,0,1.02174,418.545,-1.02174)">
                            <path d="M124,34.58L124,59.42C124,65.259 119.465,70 113.88,70L90.12,70C84.535,70 80,65.259 80,59.42L80,34.58C80,28.741 84.535,24 90.12,24L113.88,24C119.465,24 124,28.741 124,34.58Z" style="fill:rgb(255,232,160);"/>
                            <path d="M124.334,34.58L124.334,59.42C124.334,65.452 119.649,70.349 113.88,70.349L90.12,70.349C84.351,70.349 79.666,65.452 79.666,59.42L79.666,34.58C79.666,28.548 84.351,23.651 90.12,23.651L113.88,23.651C119.649,23.651 124.334,28.548 124.334,34.58ZM124,34.58C124,28.741 119.465,24 113.88,24L90.12,24C84.535,24 80,28.741 80,34.58L80,59.42C80,65.259 84.535,70 90.12,70L113.88,70C119.465,70 124,65.259 124,59.42L124,34.58Z"/>
                        </g>
                        <g transform="matrix(1.06818,0,0,1.02174,472.545,-1.02174)">
                            <path d="M124,34.58L124,59.42C124,65.259 119.465,70 113.88,70L90.12,70C84.535,70 80,65.259 80,59.42L80,34.58C80,28.741 84.535,24 90.12,24L113.88,24C119.465,24 124,28.741 124,34.58Z" style="fill:rgb(189,224,191);"/>
                            <path d="M124.334,34.58L124.334,59.42C124.334,65.452 119.649,70.349 113.88,70.349L90.12,70.349C84.351,70.349 79.666,65.452 79.666,59.42L79.666,34.58C79.666,28.548 84.351,23.651 90.12,23.651L113.88,23.651C119.649,23.651 124.334,28.548 124.334,34.58ZM124,34.58C124,28.741 119.465,24 113.88,24L90.12,24C84.535,24 80,28.741 80,34.58L80,59.42C80,65.259 84.535,70 90.12,70L113.88,70C119.465,70 124,65.259 124,59.42L124,34.58Z"/>
                        </g>
                        <g transform="matrix(1.06818,0,0,1.02174,526.545,-1.02174)">
                            <path d="M124,34.58L124,59.42C124,65.259 119.465,70 113.88,70L90.12,70C84.535,70 80,65.259 80,59.42L80,34.58C80,28.741 84.535,24 90.12,24L113.88,24C119.465,24 124,28.741 124,34.58Z" style="fill:rgb(189,224,191);"/>
                            <path d="M124.334,34.58L124.334,59.42C124.334,65.452 119.649,70.349 113.88,70.349L90.12,70.349C84.351,70.349 79.666,65.452 79.666,59.42L79.666,34.58C79.666,28.548 84.351,23.651 90.12,23.651L113.88,23.651C119.649,23.651 124.334,28.548 124.334,34.58ZM124,34.58C124,28.741 119.465,24 113.88,24L90.12,24C84.535,24 80,28.741 80,34.58L80,59.42C80,65.259 84.535,70 90.12,70L113.88,70C119.465,70 124,65.259 124,59.42L124,34.58Z"/>
                        </g>
                    </g>
                    <g id="Second-Row" serif:id="Second Row" transform="matrix(1,0,0,1,76.1965,79.9163)">
                        <g transform="matrix(1.06818,0,0,1.02174,-67.4545,-1.02174)">
                            <path d="M124,34.58L124,59.42C124,65.259 119.465,70 113.88,70L90.12,70C84.535,70 80,65.259 80,59.42L80,34.58C80,28.741 84.535,24 90.12,24L113.88,24C119.465,24 124,28.741 124,34.58Z" style="fill:rgb(237,51,69);"/>
                            <path d="M124.334,34.58L124.334,59.42C124.334,65.452 119.649,70.349 113.88,70.349L90.12,70.349C84.351,70.349 79.666,65.452 79.666,59.42L79.666,34.58C79.666,28.548 84.351,23.651 90.12,23.651L113.88,23.651C119.649,23.651 124.334,28.548 124.334,34.58ZM124,34.58C124,28.741 119.465,24 113.88,24L90.12,24C84.535,24 80,28.741 80,34.58L80,59.42C80,65.259 84.535,70 90.12,70L113.88,70C119.465,70 124,65.259 124,59.42L124,34.58Z"/>
                        </g>
                        <g transform="matrix(1.06818,0,0,1.02174,-13.4545,-1.02174)">
                            <path d="M124,34.58L124,59.42C124,65.259 119.465,70 113.88,70L90.12,70C84.535,70 80,65.259 80,59.42L80,34.58C80,28.741 84.535,24 90.12,24L113.88,24C119.465,24 124,28.741 124,34.58Z" style="fill:rgb(250,167,29);"/>
                            <path d="M124.334,34.58L124.334,59.42C124.334,65.452 119.649,70.349 113.88,70.349L90.12,70.349C84.351,70.349 79.666,65.452 79.666,59.42L79.666,34.58C79.666,28.548 84.351,23.651 90.12,23.651L113.88,23.651C119.649,23.651 124.334,28.548 124.334,34.58ZM124,34.58C124,28.741 119.465,24 113.88,24L90.12,24C84.535,24 80,28.741 80,34.58L80,59.42C80,65.259 84.535,70 90.12,70L113.88,70C119.465,70 124,65.259 124,59.42L124,34.58Z"/>
                        </g>
                        <g transform="matrix(1.06818,0,0,1.02174,40.5455,-1.02174)">
                            <path d="M124,34.58L124,59.42C124,65.259 119.465,70 113.88,70L90.12,70C84.535,70 80,65.259 80,59.42L80,34.58C80,28.741 84.535,24 90.12,24L113.88,24C119.465,24 124,28.741 124,34.58Z" style="fill:rgb(112,194,123);"/>
                            <path d="M124.334,34.58L124.334,59.42C124.334,65.452 119.649,70.349 113.88,70.349L90.12,70.349C84.351,70.349 79.666,65.452 79.666,59.42L79.666,34.58C79.666,28.548 84.351,23.651 90.12,23.651L113.88,23.651C119.649,23.651 124.334,28.548 124.334,34.58ZM124,34.58C124,28.741 119.465,24 113.88,24L90.12,24C84.535,24 80,28.741 80,34.58L80,59.42C80,65.259 84.535,70 90.12,70L113.88,70C119.465,70 124,65.259 124,59.42L124,34.58Z"/>
                        </g>
                        <g transform="matrix(1.06818,0,0,1.02174,94.5455,-1.02174)">
                            <path d="M124,34.58L124,59.42C124,65.259 119.465,70 113.88,70L90.12,70C84.535,70 80,65.259 80,59.42L80,34.58C80,28.741 84.535,24 90.12,24L113.88,24C119.465,24 124,28.741 124,34.58Z" style="fill:rgb(0,175,235);"/>
                            <path d="M124.334,34.58L124.334,59.42C124.334,65.452 119.649,70.349 113.88,70.349L90.12,70.349C84.351,70.349 79.666,65.452 79.666,59.42L79.666,34.58C79.666,28.548 84.351,23.651 90.12,23.651L113.88,23.651C119.649,23.651 124.334,28.548 124.334,34.58ZM124,34.58C124,28.741 119.465,24 113.88,24L90.12,24C84.535,24 80,28.741 80,34.58L80,59.42C80,65.259 84.535,70 90.12,70L113.88,70C119.465,70 124,65.259 124,59.42L124,34.58Z"/>
                        </g>
                        <g transform="matrix(1.06818,0,0,1.02174,148.545,-1.02174)">
                            <path d="M124,34.58L124,59.42C124,65.259 119.465,70 113.88,70L90.12,70C84.535,70 80,65.259 80,59.42L80,34.58C80,28.741 84.535,24 90.12,24L113.88,24C119.465,24 124,28.741 124,34.58Z" style="fill:rgb(0,175,235);"/>
                            <path d="M124.334,34.58L124.334,59.42C124.334,65.452 119.649,70.349 113.88,70.349L90.12,70.349C84.351,70.349 79.666,65.452 79.666,59.42L79.666,34.58C79.666,28.548 84.351,23.651 90.12,23.651L113.88,23.651C119.649,23.651 124.334,28.548 124.334,34.58ZM124,34.58C124,28.741 119.465,24 113.88,24L90.12,24C84.535,24 80,28.741 80,34.58L80,59.42C80,65.259 84.535,70 90.12,70L113.88,70C119.465,70 124,65.259 124,59.42L124,34.58Z"/>
                        </g>
                        <g transform="matrix(1.06818,0,0,1.02174,202.545,-1.02174)">
                            <path d="M124,34.58L124,59.42C124,65.259 119.465,70 113.88,70L90.12,70C84.535,70 80,65.259 80,59.42L80,34.58C80,28.741 84.535,24 90.12,24L113.88,24C119.465,24 124,28.741 124,34.58Z" style="fill:rgb(89,133,191);"/>
                            <path d="M124.334,34.58L124.334,59.42C124.334,65.452 119.649,70.349 113.88,70.349L90.12,70.349C84.351,70.349 79.666,65.452 79.666,59.42L79.666,34.58C79.666,28.548 84.351,23.651 90.12,23.651L113.88,23.651C119.649,23.651 124.334,28.548 124.334,34.58ZM124,34.58C124,28.741 119.465,24 113.88,24L90.12,24C84.535,24 80,28.741 80,34.58L80,59.42C80,65.259 84.535,70 90.12,70L113.88,70C119.465,70 124,65.259 124,59.42L124,34.58Z"/>
                        </g>
                        <g transform="matrix(1.06818,0,0,1.02174,256.545,-1.02174)">
                            <path d="M124,34.58L124,59.42C124,65.259 119.465,70 113.88,70L90.12,70C84.535,70 80,65.259 80,59.42L80,34.58C80,28.741 84.535,24 90.12,24L113.88,24C119.465,24 124,28.741 124,34.58Z" style="fill:rgb(89,133,191);"/>
                            <path d="M124.334,34.58L124.334,59.42C124.334,65.452 119.649,70.349 113.88,70.349L90.12,70.349C84.351,70.349 79.666,65.452 79.666,59.42L79.666,34.58C79.666,28.548 84.351,23.651 90.12,23.651L113.88,23.651C119.649,23.651 124.334,28.548 124.334,34.58ZM124,34.58C124,28.741 119.465,24 113.88,24L90.12,24C84.535,24 80,28.741 80,34.58L80,59.42C80,65.259 84.535,70 90.12,70L113.88,70C119.465,70 124,65.259 124,59.42L124,34.58Z"/>
                        </g>
                        <g transform="matrix(1.06818,0,0,1.02174,310.545,-1.02174)">
                            <path d="M124,34.58L124,59.42C124,65.259 119.465,70 113.88,70L90.12,70C84.535,70 80,65.259 80,59.42L80,34.58C80,28.741 84.535,24 90.12,24L113.88,24C119.465,24 124,28.741 124,34.58Z" style="fill:rgb(151,214,245);"/>
                            <path d="M124.334,34.58L124.334,59.42C124.334,65.452 119.649,70.349 113.88,70.349L90.12,70.349C84.351,70.349 79.666,65.452 79.666,59.42L79.666,34.58C79.666,28.548 84.351,23.651 90.12,23.651L113.88,23.651C119.649,23.651 124.334,28.548 124.334,34.58ZM124,34.58C124,28.741 119.465,24 113.88,24L90.12,24C84.535,24 80,28.741 80,34.58L80,59.42C80,65.259 84.535,70 90.12,70L113.88,70C119.465,70 124,65.259 124,59.42L124,34.58Z"/>
                        </g>
                        <g transform="matrix(1.06818,0,0,1.02174,364.545,-1.02174)">
                            <path d="M124,34.58L124,59.42C124,65.259 119.465,70 113.88,70L90.12,70C84.535,70 80,65.259 80,59.42L80,34.58C80,28.741 84.535,24 90.12,24L113.88,24C119.465,24 124,28.741 124,34.58Z" style="fill:rgb(255,232,160);"/>
                            <path d="M124.334,34.58L124.334,59.42C124.334,65.452 119.649,70.349 113.88,70.349L90.12,70.349C84.351,70.349 79.666,65.452 79.666,59.42L79.666,34.58C79.666,28.548 84.351,23.651 90.12,23.651L113.88,23.651C119.649,23.651 124.334,28.548 124.334,34.58ZM124,34.58C124,28.741 119.465,24 113.88,24L90.12,24C84.535,24 80,28.741 80,34.58L80,59.42C80,65.259 84.535,70 90.12,70L113.88,70C119.465,70 124,65.259 124,59.42L124,34.58Z"/>
                        </g>
                        <g transform="matrix(1.06818,0,0,1.02174,418.545,-1.02174)">
                            <path d="M124,34.58L124,59.42C124,65.259 119.465,70 113.88,70L90.12,70C84.535,70 80,65.259 80,59.42L80,34.58C80,28.741 84.535,24 90.12,24L113.88,24C119.465,24 124,28.741 124,34.58Z" style="fill:rgb(189,224,191);"/>
                            <path d="M124.334,34.58L124.334,59.42C124.334,65.452 119.649,70.349 113.88,70.349L90.12,70.349C84.351,70.349 79.666,65.452 79.666,59.42L79.666,34.58C79.666,28.548 84.351,23.651 90.12,23.651L113.88,23.651C119.649,23.651 124.334,28.548 124.334,34.58ZM124,34.58C124,28.741 119.465,24 113.88,24L90.12,24C84.535,24 80,28.741 80,34.58L80,59.42C80,65.259 84.535,70 90.12,70L113.88,70C119.465,70 124,65.259 124,59.42L124,34.58Z"/>
                        </g>
                        <g transform="matrix(1.06818,0,0,1.02174,472.545,-1.02174)">
                            <path d="M124,34.58L124,59.42C124,65.259 119.465,70 113.88,70L90.12,70C84.535,70 80,65.259 80,59.42L80,34.58C80,28.741 84.535,24 90.12,24L113.88,24C119.465,24 124,28.741 124,34.58Z" style="fill:rgb(189,224,191);"/>
                            <path d="M124.334,34.58L124.334,59.42C124.334,65.452 119.649,70.349 113.88,70.349L90.12,70.349C84.351,70.349 79.666,65.452 79.666,59.42L79.666,34.58C79.666,28.548 84.351,23.651 90.12,23.651L113.88,23.651C119.649,23.651 124.334,28.548 124.334,34.58ZM124,34.58C124,28.741 119.465,24 113.88,24L90.12,24C84.535,24 80,28.741 80,34.58L80,59.42C80,65.259 84.535,70 90.12,70L113.88,70C119.465,70 124,65.259 124,59.42L124,34.58Z"/>
                        </g>
                        <g transform="matrix(1.06818,0,0,1.02174,526.545,-1.02174)">
                            <path d="M124,34.58L124,59.42C124,65.259 119.465,70 113.88,70L90.12,70C84.535,70 80,65.259 80,59.42L80,34.58C80,28.741 84.535,24 90.12,24L113.88,24C119.465,24 124,28.741 124,34.58Z" style="fill:rgb(189,224,191);"/>
                            <path d="M124.334,34.58L124.334,59.42C124.334,65.452 119.649,70.349 113.88,70.349L90.12,70.349C84.351,70.349 79.666,65.452 79.666,59.42L79.666,34.58C79.666,28.548 84.351,23.651 90.12,23.651L113.88,23.651C119.649,23.651 124.334,28.548 124.334,34.58ZM124,34.58C124,28.741 119.465,24 113.88,24L90.12,24C84.535,24 80,28.741 80,34.58L80,59.42C80,65.259 84.535,70 90.12,70L113.88,70C119.465,70 124,65.259 124,59.42L124,34.58Z"/>
                        </g>
                    </g>
                    <g id="Top-Row" serif:id="Top Row" transform="matrix(1,0,0,1,-2.80349,25.9163)">
                        <g transform="matrix(1.06818,0,0,1.02174,-67.4545,-1.02174)">
                            <path d="M124,34.58L124,59.42C124,65.259 119.465,70 113.88,70L90.12,70C84.535,70 80,65.259 80,59.42L80,34.58C80,28.741 84.535,24 90.12,24L113.88,24C119.465,24 124,28.741 124,34.58Z" style="fill:rgb(237,51,69);"/>
                            <path d="M124.334,34.58L124.334,59.42C124.334,65.452 119.649,70.349 113.88,70.349L90.12,70.349C84.351,70.349 79.666,65.452 79.666,59.42L79.666,34.58C79.666,28.548 84.351,23.651 90.12,23.651L113.88,23.651C119.649,23.651 124.334,28.548 124.334,34.58ZM124,34.58C124,28.741 119.465,24 113.88,24L90.12,24C84.535,24 80,28.741 80,34.58L80,59.42C80,65.259 84.535,70 90.12,70L113.88,70C119.465,70 124,65.259 124,59.42L124,34.58Z"/>
                        </g>
                        <g transform="matrix(1.06818,0,0,1.02174,-13.4545,-1.02174)">
                            <path d="M124,34.58L124,59.42C124,65.259 119.465,70 113.88,70L90.12,70C84.535,70 80,65.259 80,59.42L80,34.58C80,28.741 84.535,24 90.12,24L113.88,24C119.465,24 124,28.741 124,34.58Z" style="fill:rgb(237,51,69);"/>
                            <path d="M124.334,34.58L124.334,59.42C124.334,65.452 119.649,70.349 113.88,70.349L90.12,70.349C84.351,70.349 79.666,65.452 79.666,59.42L79.666,34.58C79.666,28.548 84.351,23.651 90.12,23.651L113.88,23.651C119.649,23.651 124.334,28.548 124.334,34.58ZM124,34.58C124,28.741 119.465,24 113.88,24L90.12,24C84.535,24 80,28.741 80,34.58L80,59.42C80,65.259 84.535,70 90.12,70L113.88,70C119.465,70 124,65.259 124,59.42L124,34.58Z"/>
                        </g>
                        <g transform="matrix(1.06818,0,0,1.02174,40.5455,-1.02174)">
                            <path d="M124,34.58L124,59.42C124,65.259 119.465,70 113.88,70L90.12,70C84.535,70 80,65.259 80,59.42L80,34.58C80,28.741 84.535,24 90.12,24L113.88,24C119.465,24 124,28.741 124,34.58Z" style="fill:rgb(250,167,29);"/>
                            <path d="M124.334,34.58L124.334,59.42C124.334,65.452 119.649,70.349 113.88,70.349L90.12,70.349C84.351,70.349 79.666,65.452 79.666,59.42L79.666,34.58C79.666,28.548 84.351,23.651 90.12,23.651L113.88,23.651C119.649,23.651 124.334,28.548 124.334,34.58ZM124,34.58C124,28.741 119.465,24 113.88,24L90.12,24C84.535,24 80,28.741 80,34.58L80,59.42C80,65.259 84.535,70 90.12,70L113.88,70C119.465,70 124,65.259 124,59.42L124,34.58Z"/>
                        </g>
                        <g transform="matrix(1.06818,0,0,1.02174,94.5455,-1.02174)">
                            <path d="M124,34.58L124,59.42C124,65.259 119.465,70 113.88,70L90.12,70C84.535,70 80,65.259 80,59.42L80,34.58C80,28.741 84.535,24 90.12,24L113.88,24C119.465,24 124,28.741 124,34.58Z" style="fill:rgb(112,194,123);"/>
                            <path d="M124.334,34.58L124.334,59.42C124.334,65.452 119.649,70.349 113.88,70.349L90.12,70.349C84.351,70.349 79.666,65.452 79.666,59.42L79.666,34.58C79.666,28.548 84.351,23.651 90.12,23.651L113.88,23.651C119.649,23.651 124.334,28.548 124.334,34.58ZM124,34.58C124,28.741 119.465,24 113.88,24L90.12,24C84.535,24 80,28.741 80,34.58L80,59.42C80,65.259 84.535,70 90.12,70L113.88,70C119.465,70 124,65.259 124,59.42L124,34.58Z"/>
                        </g>
                        <g transform="matrix(1.06818,0,0,1.02174,148.545,-1.02174)">
                            <path d="M124,34.58L124,59.42C124,65.259 119.465,70 113.88,70L90.12,70C84.535,70 80,65.259 80,59.42L80,34.58C80,28.741 84.535,24 90.12,24L113.88,24C119.465,24 124,28.741 124,34.58Z" style="fill:rgb(0,175,235);"/>
                            <path d="M124.334,34.58L124.334,59.42C124.334,65.452 119.649,70.349 113.88,70.349L90.12,70.349C84.351,70.349 79.666,65.452 79.666,59.42L79.666,34.58C79.666,28.548 84.351,23.651 90.12,23.651L113.88,23.651C119.649,23.651 124.334,28.548 124.334,34.58ZM124,34.58C124,28.741 119.465,24 113.88,24L90.12,24C84.535,24 80,28.741 80,34.58L80,59.42C80,65.259 84.535,70 90.12,70L113.88,70C119.465,70 124,65.259 124,59.42L124,34.58Z"/>
                        </g>
                        <g transform="matrix(1.06818,0,0,1.02174,202.545,-1.02174)">
                            <path d="M124,34.58L124,59.42C124,65.259 119.465,70 113.88,70L90.12,70C84.535,70 80,65.259 80,59.42L80,34.58C80,28.741 84.535,24 90.12,24L113.88,24C119.465,24 124,28.741 124,34.58Z" style="fill:rgb(0,175,235);"/>
                            <path d="M124.334,34.58L124.334,59.42C124.334,65.452 119.649,70.349 113.88,70.349L90.12,70.349C84.351,70.349 79.666,65.452 79.666,59.42L79.666,34.58C79.666,28.548 84.351,23.651 90.12,23.651L113.88,23.651C119.649,23.651 124.334,28.548 124.334,34.58ZM124,34.58C124,28.741 119.465,24 113.88,24L90.12,24C84.535,24 80,28.741 80,34.58L80,59.42C80,65.259 84.535,70 90.12,70L113.88,70C119.465,70 124,65.259 124,59.42L124,34.58Z"/>
                        </g>
                        <g transform="matrix(1.06818,0,0,1.02174,256.545,-1.02174)">
                            <path d="M124,34.58L124,59.42C124,65.259 119.465,70 113.88,70L90.12,70C84.535,70 80,65.259 80,59.42L80,34.58C80,28.741 84.535,24 90.12,24L113.88,24C119.465,24 124,28.741 124,34.58Z" style="fill:rgb(89,133,191);"/>
                            <path d="M124.334,34.58L124.334,59.42C124.334,65.452 119.649,70.349 113.88,70.349L90.12,70.349C84.351,70.349 79.666,65.452 79.666,59.42L79.666,34.58C79.666,28.548 84.351,23.651 90.12,23.651L113.88,23.651C119.649,23.651 124.334,28.548 124.334,34.58ZM124,34.58C124,28.741 119.465,24 113.88,24L90.12,24C84.535,24 80,28.741 80,34.58L80,59.42C80,65.259 84.535,70 90.12,70L113.88,70C119.465,70 124,65.259 124,59.42L124,34.58Z"/>
                        </g>
                        <g transform="matrix(1.06818,0,0,1.02174,310.545,-1.02174)">
                            <path d="M124,34.58L124,59.42C124,65.259 119.465,70 113.88,70L90.12,70C84.535,70 80,65.259 80,59.42L80,34.58C80,28.741 84.535,24 90.12,24L113.88,24C119.465,24 124,28.741 124,34.58Z" style="fill:rgb(89,133,191);"/>
                            <path d="M124.334,34.58L124.334,59.42C124.334,65.452 119.649,70.349 113.88,70.349L90.12,70.349C84.351,70.349 79.666,65.452 79.666,59.42L79.666,34.58C79.666,28.548 84.351,23.651 90.12,23.651L113.88,23.651C119.649,23.651 124.334,28.548 124.334,34.58ZM124,34.58C124,28.741 119.465,24 113.88,24L90.12,24C84.535,24 80,28.741 80,34.58L80,59.42C80,65.259 84.535,70 90.12,70L113.88,70C119.465,70 124,65.259 124,59.42L124,34.58Z"/>
                        </g>
                        <g transform="matrix(1.06818,0,0,1.02174,364.545,-1.02174)">
                            <path d="M124,34.58L124,59.42C124,65.259 119.465,70 113.88,70L90.12,70C84.535,70 80,65.259 80,59.42L80,34.58C80,28.741 84.535,24 90.12,24L113.88,24C119.465,24 124,28.741 124,34.58Z" style="fill:rgb(151,214,245);"/>
                            <path d="M124.334,34.58L124.334,59.42C124.334,65.452 119.649,70.349 113.88,70.349L90.12,70.349C84.351,70.349 79.666,65.452 79.666,59.42L79.666,34.58C79.666,28.548 84.351,23.651 90.12,23.651L113.88,23.651C119.649,23.651 124.334,28.548 124.334,34.58ZM124,34.58C124,28.741 119.465,24 113.88,24L90.12,24C84.535,24 80,28.741 80,34.58L80,59.42C80,65.259 84.535,70 90.12,70L113.88,70C119.465,70 124,65.259 124,59.42L124,34.58Z"/>
                        </g>
                        <g transform="matrix(1.06818,0,0,1.02174,418.545,-1.02174)">
                            <path d="M124,34.58L124,59.42C124,65.259 119.465,70 113.88,70L90.12,70C84.535,70 80,65.259 80,59.42L80,34.58C80,28.741 84.535,24 90.12,24L113.88,24C119.465,24 124,28.741 124,34.58Z" style="fill:rgb(255,232,160);"/>
                            <path d="M124.334,34.58L124.334,59.42C124.334,65.452 119.649,70.349 113.88,70.349L90.12,70.349C84.351,70.349 79.666,65.452 79.666,59.42L79.666,34.58C79.666,28.548 84.351,23.651 90.12,23.651L113.88,23.651C119.649,23.651 124.334,28.548 124.334,34.58ZM124,34.58C124,28.741 119.465,24 113.88,24L90.12,24C84.535,24 80,28.741 80,34.58L80,59.42C80,65.259 84.535,70 90.12,70L113.88,70C119.465,70 124,65.259 124,59.42L124,34.58Z"/>
                        </g>
                        <g transform="matrix(1.06818,0,0,1.02174,472.545,-1.02174)">
                            <path d="M124,34.58L124,59.42C124,65.259 119.465,70 113.88,70L90.12,70C84.535,70 80,65.259 80,59.42L80,34.58C80,28.741 84.535,24 90.12,24L113.88,24C119.465,24 124,28.741 124,34.58Z" style="fill:rgb(189,224,191);"/>
                            <path d="M124.334,34.58L124.334,59.42C124.334,65.452 119.649,70.349 113.88,70.349L90.12,70.349C84.351,70.349 79.666,65.452 79.666,59.42L79.666,34.58C79.666,28.548 84.351,23.651 90.12,23.651L113.88,23.651C119.649,23.651 124.334,28.548 124.334,34.58ZM124,34.58C124,28.741 119.465,24 113.88,24L90.12,24C84.535,24 80,28.741 80,34.58L80,59.42C80,65.259 84.535,70 90.12,70L113.88,70C119.465,70 124,65.259 124,59.42L124,34.58Z"/>
                        </g>
                        <g transform="matrix(1.06818,0,0,1.02174,526.545,-1.02174)">
                            <path d="M124,34.58L124,59.42C124,65.259 119.465,70 113.88,70L90.12,70C84.535,70 80,65.259 80,59.42L80,34.58C80,28.741 84.535,24 90.12,24L113.88,24C119.465,24 124,28.741 124,34.58Z" style="fill:rgb(189,224,191);"/>
                            <path d="M124.334,34.58L124.334,59.42C124.334,65.452 119.649,70.349 113.88,70.349L90.12,70.349C84.351,70.349 79.666,65.452 79.666,59.42L79.666,34.58C79.666,28.548 84.351,23.651 90.12,23.651L113.88,23.651C119.649,23.651 124.334,28.548 124.334,34.58ZM124,34.58C124,28.741 119.465,24 113.88,24L90.12,24C84.535,24 80,28.741 80,34.58L80,59.42C80,65.259 84.535,70 90.12,70L113.88,70C119.465,70 124,65.259 124,59.42L124,34.58Z"/>
                        </g>
                        <g transform="matrix(1.06818,0,0,1.02174,580.545,-1.02174)">
                            <path d="M124,34.58L124,59.42C124,65.259 119.465,70 113.88,70L90.12,70C84.535,70 80,65.259 80,59.42L80,34.58C80,28.741 84.535,24 90.12,24L113.88,24C119.465,24 124,28.741 124,34.58Z" style="fill:rgb(189,224,191);"/>
                            <path d="M124.334,34.58L124.334,59.42C124.334,65.452 119.649,70.349 113.88,70.349L90.12,70.349C84.351,70.349 79.666,65.452 79.666,59.42L79.666,34.58C79.666,28.548 84.351,23.651 90.12,23.651L113.88,23.651C119.649,23.651 124.334,28.548 124.334,34.58ZM124,34.58C124,28.741 119.465,24 113.88,24L90.12,24C84.535,24 80,28.741 80,34.58L80,59.42C80,65.259 84.535,70 90.12,70L113.88,70C119.465,70 124,65.259 124,59.42L124,34.58Z"/>
                        </g>
                        <g transform="matrix(2.20455,0,0,1.02174,543.636,-1.02174)">
                            <path d="M124,34.58L124,59.42C124,65.259 121.803,70 119.096,70L84.904,70C82.197,70 80,65.259 80,59.42L80,34.58C80,28.741 82.197,24 84.904,24L119.096,24C121.803,24 124,28.741 124,34.58Z" style="fill:rgb(189,224,191);"/>
                            <path d="M124.162,34.58L124.162,59.42C124.162,65.452 121.892,70.349 119.096,70.349L84.904,70.349C82.108,70.349 79.838,65.452 79.838,59.42L79.838,34.58C79.838,28.548 82.108,23.651 84.904,23.651L119.096,23.651C121.892,23.651 124.162,28.548 124.162,34.58ZM124,34.58C124,28.741 121.803,24 119.096,24L84.904,24C82.197,24 80,28.741 80,34.58L80,59.42C80,65.259 82.197,70 84.904,70L119.096,70C121.803,70 124,65.259 124,59.42L124,34.58Z"/>
                        </g>
                    </g>
                </g>
                <g id="Text" transform="matrix(0.97428,0,0,0.945946,7.81569,44.5521)">
                    <g id="Fourth-Row1" serif:id="Fourth Row">
                        <g transform="matrix(1.0264,0,0,1.05714,42.634,91.1301)">
                            <g transform="matrix(20,0,0,20,128.343,111.26)">
                            </g>
                            <text x="116.343px" y="111.26px" style="font-family:'GeistMono-Medium', 'Geist Mono', monospace;font-weight:500;font-size:20px;">Z</text>
                        </g>
                        <g transform="matrix(1.0264,0,0,1.05714,98.0596,91.1301)">
                            <g transform="matrix(20,0,0,20,128.343,111.26)">
                            </g>
                            <text x="116.343px" y="111.26px" style="font-family:'GeistMono-Medium', 'Geist Mono', monospace;font-weight:500;font-size:20px;">X</text>
                        </g>
                        <g transform="matrix(1.0264,0,0,1.05714,153.547,91.1301)">
                            <g transform="matrix(20,0,0,20,128.343,111.26)">
                            </g>
                            <text x="116.343px" y="111.26px" style="font-family:'GeistMono-Medium', 'Geist Mono', monospace;font-weight:500;font-size:20px;">C</text>
                        </g>
                        <g transform="matrix(1.0264,0,0,1.05714,208.911,91.1301)">
                            <g transform="matrix(20,0,0,20,128.343,111.26)">
                            </g>
                            <text x="116.343px" y="111.26px" style="font-family:'GeistMono-Medium', 'Geist Mono', monospace;font-weight:500;font-size:20px;">V</text>
                        </g>
                        <g transform="matrix(1.0264,0,0,1.05714,263.916,91.1301)">
                            <g transform="matrix(20,0,0,20,128.343,111.26)">
                            </g>
                            <text x="116.343px" y="111.26px" style="font-family:'GeistMono-Medium', 'Geist Mono', monospace;font-weight:500;font-size:20px;">B</text>
                        </g>
                        <g transform="matrix(1.0264,0,0,1.05714,319.762,91.1301)">
                            <g transform="matrix(20,0,0,20,128.343,111.26)">
                            </g>
                            <text x="116.343px" y="111.26px" style="font-family:'GeistMono-Medium', 'Geist Mono', monospace;font-weight:500;font-size:20px;">N</text>
                        </g>
                        <g transform="matrix(1.0264,0,0,1.05714,375.187,91.1301)">
                            <g transform="matrix(20,0,0,20,128.343,111.26)">
                            </g>
                            <text x="116.343px" y="111.26px" style="font-family:'GeistMono-Medium', 'Geist Mono', monospace;font-weight:500;font-size:20px;">M</text>
                        </g>
                        <g transform="matrix(1.0264,0,0,1.05714,430.613,91.1301)">
                            <g transform="matrix(20,0,0,20,128.343,111.26)">
                            </g>
                            <text x="116.343px" y="111.26px" style="font-family:'GeistMono-Medium', 'Geist Mono', monospace;font-weight:500;font-size:20px;">,</text>
                        </g>
                        <g transform="matrix(1.0264,0,0,1.05714,486.039,91.1301)">
                            <g transform="matrix(20,0,0,20,128.343,111.26)">
                            </g>
                            <text x="116.343px" y="111.26px" style="font-family:'GeistMono-Medium', 'Geist Mono', monospace;font-weight:500;font-size:20px;">.</text>
                        </g>
                        <g transform="matrix(1.0264,0,0,1.05714,541.464,90.3901)">
                            <g transform="matrix(20,0,0,20,128.343,111.26)">
                            </g>
                            <text x="116.343px" y="111.26px" style="font-family:'GeistMono-Medium', 'Geist Mono', monospace;font-weight:500;font-size:20px;">/</text>
                        </g>
                    </g>
                    <g id="Third-Row1" serif:id="Third Row">
                        <g transform="matrix(1.0264,0,0,1.05714,13.8949,34.0444)">
                            <g transform="matrix(20,0,0,20,128.343,111.26)">
                            </g>
                            <text x="116.343px" y="111.26px" style="font-family:'GeistMono-Medium', 'Geist Mono', monospace;font-weight:500;font-size:20px;">A</text>
                        </g>
                        <g transform="matrix(1.0264,0,0,1.05714,69.3204,34.0444)">
                            <g transform="matrix(20,0,0,20,128.343,111.26)">
                            </g>
                            <text x="116.343px" y="111.26px" style="font-family:'GeistMono-Medium', 'Geist Mono', monospace;font-weight:500;font-size:20px;">S</text>
                        </g>
                        <g transform="matrix(1.0264,0,0,1.05714,124.264,34.0444)">
                            <g transform="matrix(20,0,0,20,128.343,111.26)">
                            </g>
                            <text x="116.343px" y="111.26px" style="font-family:'GeistMono-Medium', 'Geist Mono', monospace;font-weight:500;font-size:20px;">D</text>
                        </g>
                        <g transform="matrix(1.0264,0,0,1.05714,179.761,34.0444)">
                            <g transform="matrix(20,0,0,20,128.343,111.26)">
                            </g>
                            <text x="116.343px" y="111.26px" style="font-family:'GeistMono-Medium', 'Geist Mono', monospace;font-weight:500;font-size:20px;">F</text>
                        </g>
                        <g transform="matrix(1.0264,0,0,1.05714,235.679,34.0444)">
                            <g transform="matrix(20,0,0,20,128.343,111.26)">
                            </g>
                            <text x="116.343px" y="111.26px" style="font-family:'GeistMono-Medium', 'Geist Mono', monospace;font-weight:500;font-size:20px;">G</text>
                        </g>
                        <g transform="matrix(1.0264,0,0,1.05714,291.023,34.0444)">
                            <g transform="matrix(20,0,0,20,128.343,111.26)">
                            </g>
                            <text x="116.343px" y="111.26px" style="font-family:'GeistMono-Medium', 'Geist Mono', monospace;font-weight:500;font-size:20px;">H</text>
                        </g>
                        <g transform="matrix(1.0264,0,0,1.05714,346.961,33.8752)">
                            <g transform="matrix(20,0,0,20,128.343,111.26)">
                            </g>
                            <text x="116.343px" y="111.26px" style="font-family:'GeistMono-Medium', 'Geist Mono', monospace;font-weight:500;font-size:20px;">J</text>
                        </g>
                        <g transform="matrix(1.0264,0,0,1.05714,401.689,34.0444)">
                            <g transform="matrix(20,0,0,20,128.343,111.26)">
                            </g>
                            <text x="116.343px" y="111.26px" style="font-family:'GeistMono-Medium', 'Geist Mono', monospace;font-weight:500;font-size:20px;">K</text>
                        </g>
                        <g transform="matrix(1.0264,0,0,1.05714,456.889,34.0444)">
                            <g transform="matrix(20,0,0,20,128.343,111.26)">
                            </g>
                            <text x="116.343px" y="111.26px" style="font-family:'GeistMono-Medium', 'Geist Mono', monospace;font-weight:500;font-size:20px;">L</text>
                        </g>
                        <g transform="matrix(1.0264,0,0,1.05714,512.725,33.8752)">
                            <g transform="matrix(20,0,0,20,128.343,111.26)">
                            </g>
                            <text x="116.343px" y="111.26px" style="font-family:'GeistMono-Medium', 'Geist Mono', monospace;font-weight:500;font-size:20px;">;</text>
                        </g>
                        <g transform="matrix(1.0264,0,0,1.05714,568.151,33.8752)">
                            <g transform="matrix(20,0,0,20,128.343,111.26)">
                            </g>
                            <text x="116.343px" y="111.26px" style="font-family:'GeistMono-Medium', 'Geist Mono', monospace;font-weight:500;font-size:20px;">'</text>
                        </g>
                    </g>
                    <g id="Second-Row1" serif:id="Second Row">
                        <g transform="matrix(1.0264,0,0,1.05714,-12.7915,-23.6016)">
                            <g transform="matrix(20,0,0,20,128.343,111.26)">
                            </g>
                            <text x="116.343px" y="111.26px" style="font-family:'GeistMono-Medium', 'Geist Mono', monospace;font-weight:500;font-size:20px;">Q</text>
                        </g>
                        <g transform="matrix(1.0264,0,0,1.05714,42.634,-23.0413)">
                            <g transform="matrix(20,0,0,20,128.343,111.26)">
                            </g>
                            <text x="116.343px" y="111.26px" style="font-family:'GeistMono-Medium', 'Geist Mono', monospace;font-weight:500;font-size:20px;">W</text>
                        </g>
                        <g transform="matrix(1.0264,0,0,1.05714,97.8543,-23.0413)">
                            <g transform="matrix(20,0,0,20,128.343,111.26)">
                            </g>
                            <text x="116.343px" y="111.26px" style="font-family:'GeistMono-Medium', 'Geist Mono', monospace;font-weight:500;font-size:20px;">E</text>
                        </g>
                        <g transform="matrix(1.0264,0,0,1.05714,153.434,-23.0413)">
                            <g transform="matrix(20,0,0,20,128.343,111.26)">
                            </g>
                            <text x="116.343px" y="111.26px" style="font-family:'GeistMono-Medium', 'Geist Mono', monospace;font-weight:500;font-size:20px;">R</text>
                        </g>
                        <g transform="matrix(1.0264,0,0,1.05714,208.911,-23.0413)">
                            <g transform="matrix(20,0,0,20,128.343,111.26)">
                            </g>
                            <text x="116.343px" y="111.26px" style="font-family:'GeistMono-Medium', 'Geist Mono', monospace;font-weight:500;font-size:20px;">T</text>
                        </g>
                        <g transform="matrix(1.0264,0,0,1.05714,264.336,-23.0413)">
                            <g transform="matrix(20,0,0,20,128.343,111.26)">
                            </g>
                            <text x="116.343px" y="111.26px" style="font-family:'GeistMono-Medium', 'Geist Mono', monospace;font-weight:500;font-size:20px;">Y</text>
                        </g>
                        <g transform="matrix(1.0264,0,0,1.05714,319.762,-23.2105)">
                            <g transform="matrix(20,0,0,20,128.343,111.26)">
                            </g>
                            <text x="116.343px" y="111.26px" style="font-family:'GeistMono-Medium', 'Geist Mono', monospace;font-weight:500;font-size:20px;">U</text>
                        </g>
                        <g transform="matrix(1.0264,0,0,1.05714,375.187,-23.0413)">
                            <g transform="matrix(20,0,0,20,128.343,111.26)">
                            </g>
                            <text x="116.343px" y="111.26px" style="font-family:'GeistMono-Medium', 'Geist Mono', monospace;font-weight:500;font-size:20px;">I</text>
                        </g>
                        <g transform="matrix(1.0264,0,0,1.05714,430.613,-23.0413)">
                            <g transform="matrix(20,0,0,20,128.343,111.26)">
                            </g>
                            <text x="116.343px" y="111.26px" style="font-family:'GeistMono-Medium', 'Geist Mono', monospace;font-weight:500;font-size:20px;">O</text>
                        </g>
                        <g transform="matrix(1.0264,0,0,1.05714,485.649,-23.0413)">
                            <g transform="matrix(20,0,0,20,128.343,111.26)">
                            </g>
                            <text x="116.343px" y="111.26px" style="font-family:'GeistMono-Medium', 'Geist Mono', monospace;font-weight:500;font-size:20px;">P</text>
                        </g>
                        <g transform="matrix(1.0264,0,0,1.05714,541.464,-23.7813)">
                            <g transform="matrix(20,0,0,20,128.343,111.26)">
                            </g>
                            <text x="116.343px" y="111.26px" style="font-family:'GeistMono-Medium', 'Geist Mono', monospace;font-weight:500;font-size:20px;">[</text>
                        </g>
                        <g transform="matrix(1.0264,0,0,1.05714,596.89,-23.7813)">
                            <g transform="matrix(20,0,0,20,128.343,111.26)">
                            </g>
                            <text x="116.343px" y="111.26px" style="font-family:'GeistMono-Medium', 'Geist Mono', monospace;font-weight:500;font-size:20px;">]</text>
                        </g>
                    </g>
                    <g id="Top-Row1" serif:id="Top Row">
                        <g transform="matrix(1.0264,0,0,1.05714,-93.8771,-79.6126)">
                            <g transform="matrix(20,0,0,20,128.343,111.26)">
                            </g>
                            <text x="116.343px" y="111.26px" style="font-family:'GeistMono-Medium', 'Geist Mono', monospace;font-weight:500;font-size:20px;">`</text>
                        </g>
                        <g transform="matrix(1.0264,0,0,1.05714,-38.4515,-80.1271)">
                            <g transform="matrix(20,0,0,20,128.343,111.26)">
                            </g>
                            <text x="116.343px" y="111.26px" style="font-family:'GeistMono-Medium', 'Geist Mono', monospace;font-weight:500;font-size:20px;">1</text>
                        </g>
                        <g transform="matrix(1.0264,0,0,1.05714,16.9741,-79.9579)">
                            <g transform="matrix(20,0,0,20,128.343,111.26)">
                            </g>
                            <text x="116.343px" y="111.26px" style="font-family:'GeistMono-Medium', 'Geist Mono', monospace;font-weight:500;font-size:20px;">2</text>
                        </g>
                        <g transform="matrix(1.0264,0,0,1.05714,72.3996,-80.1271)">
                            <g transform="matrix(20,0,0,20,128.343,111.26)">
                            </g>
                            <text x="116.343px" y="111.26px" style="font-family:'GeistMono-Medium', 'Geist Mono', monospace;font-weight:500;font-size:20px;">3</text>
                        </g>
                        <g transform="matrix(1.0264,0,0,1.05714,127.825,-80.1271)">
                            <g transform="matrix(20,0,0,20,128.343,111.26)">
                            </g>
                            <text x="116.343px" y="111.26px" style="font-family:'GeistMono-Medium', 'Geist Mono', monospace;font-weight:500;font-size:20px;">4</text>
                        </g>
                        <g transform="matrix(1.0264,0,0,1.05714,183.251,-80.2962)">
                            <g transform="matrix(20,0,0,20,128.343,111.26)">
                            </g>
                            <text x="116.343px" y="111.26px" style="font-family:'GeistMono-Medium', 'Geist Mono', monospace;font-weight:500;font-size:20px;">5</text>
                        </g>
                        <g transform="matrix(1.0264,0,0,1.05714,238.676,-80.1271)">
                            <g transform="matrix(20,0,0,20,128.343,111.26)">
                            </g>
                            <text x="116.343px" y="111.26px" style="font-family:'GeistMono-Medium', 'Geist Mono', monospace;font-weight:500;font-size:20px;">6</text>
                        </g>
                        <g transform="matrix(1.0264,0,0,1.05714,294.102,-80.1271)">
                            <g transform="matrix(20,0,0,20,128.343,111.26)">
                            </g>
                            <text x="116.343px" y="111.26px" style="font-family:'GeistMono-Medium', 'Geist Mono', monospace;font-weight:500;font-size:20px;">7</text>
                        </g>
                        <g transform="matrix(1.0264,0,0,1.05714,349.527,-80.1271)">
                            <g transform="matrix(20,0,0,20,128.343,111.26)">
                            </g>
                            <text x="116.343px" y="111.26px" style="font-family:'GeistMono-Medium', 'Geist Mono', monospace;font-weight:500;font-size:20px;">8</text>
                        </g>
                        <g transform="matrix(1.0264,0,0,1.05714,404.953,-80.1271)">
                            <g transform="matrix(20,0,0,20,128.343,111.26)">
                            </g>
                            <text x="116.343px" y="111.26px" style="font-family:'GeistMono-Medium', 'Geist Mono', monospace;font-weight:500;font-size:20px;">9</text>
                        </g>
                        <g transform="matrix(1.0264,0,0,1.05714,460.379,-80.1271)">
                            <g transform="matrix(20,0,0,20,128.343,111.26)">
                            </g>
                            <text x="116.343px" y="111.26px" style="font-family:'GeistMono-Medium', 'Geist Mono', monospace;font-weight:500;font-size:20px;">0</text>
                        </g>
                        <g transform="matrix(1.0264,0,0,1.05714,515.804,-81.4696)">
                            <g transform="matrix(20,0,0,20,128.343,111.26)">
                            </g>
                            <text x="116.343px" y="111.26px" style="font-family:'GeistMono-Medium', 'Geist Mono', monospace;font-weight:500;font-size:20px;">-</text>
                        </g>
                        <g transform="matrix(1.0264,0,0,1.05714,571.23,-81.3428)">
                            <g transform="matrix(20,0,0,20,128.343,111.26)">
                            </g>
                            <text x="116.343px" y="111.26px" style="font-family:'GeistMono-Medium', 'Geist Mono', monospace;font-weight:500;font-size:20px;">=</text>
                        </g>
                        <g transform="matrix(0.718885,0,0,0.740418,676.697,-47.1351)">
                            <g transform="matrix(20.0071,0,0,20.0071,164.36,111.26)">
                            </g>
                            <text x="116.343px" y="111.26px" style="font-family:'GeistMono-Medium', 'Geist Mono', monospace;font-weight:500;font-size:20.007px;">BSPC</text>
                        </g>
                    </g>
                </g>
                <g id="Markers">
                    <g id="F-Marker" serif:id="F Marker" transform="matrix(0.335654,0,0,0.238924,198.231,99.2909)">
                        <rect x="306.94" y="385.821" width="26.635" height="8.371"/>
                    </g>
                    <g id="J-Marker" serif:id="J Marker" transform="matrix(0.335654,0,0,0.238924,360.201,99.2909)">
                        <rect x="306.94" y="385.821" width="26.635" height="8.371"/>
                    </g>
                </g>
                <g id="Hands" transform="matrix(0.428759,0,0,0.428759,-189.064,-242.598)">
                    <g id="Right" transform="matrix(1,0,0,1,0,-26.8152)">
                        <g>
                            <g transform="matrix(2.33231,0,0,2.33231,440.957,565.814)">
                                <path d="M616.862,499.523L517.726,499.523L490.959,461.648C485.649,451.74 485.607,427.659 481.478,426.002C480.016,418.64 470.802,417.138 470.713,395.21C467.798,390.698 453.277,378.953 464.153,370.83C474.75,368.011 497.284,375.16 503.379,398.979C504.897,404.911 516.139,431.452 519.38,426.346C522.81,420.941 522.498,400.556 522.498,400.556L514.482,343.883C507.812,310.757 513.729,301.723 521.607,299.863C528.802,298.163 532.482,307.394 536.168,309.706C537.408,310.484 531.377,283.002 544.006,278.704C554.861,275.011 562.911,291.685 564.172,297.855C564.437,299.152 567.79,283.439 577.333,282.994C586.876,282.55 591.245,297.005 591.245,297.005C591.245,297.005 603.223,371.279 606.867,384.167C606.867,384.167 612.337,376.319 612.03,372.173C611.576,366.041 615.416,347.647 615.416,347.647C610.954,325.236 616.424,320.906 616.424,320.906C619.798,310.322 632.962,312.699 634.983,319.969L637.178,372.207C637.178,372.207 625.344,427.183 625.552,431.473C625.685,434.234 627.53,464.914 616.518,483.76C615.394,485.682 616.862,499.523 616.862,499.523Z" style="fill:rgb(230,230,230);fill-opacity:0.8;"/>
                            </g>
                            <g transform="matrix(3.77953,0,0,3.77953,1104.88,254.296)">
                                <path d="M205.421,390.674L204.447,390.674C204.447,390.674 203.282,382.797 203.883,381.349C205.203,378.171 208.437,369.086 209.248,363.544C209.862,359.349 210.057,353.756 209.685,350.997C209.379,348.729 209.4,348.497 210.447,342.842C212.188,333.427 213.534,326.905 215.137,320.114C216.615,313.851 216.642,313.667 216.644,309.769C216.647,305.095 216.098,290.327 215.913,290.142C215.843,290.072 215.368,290.471 214.857,291.029C213.95,292.017 213.883,292.042 212.122,292.03C207.972,292.002 205.639,289.171 204.935,283.311L204.713,281.459L204.207,282.517C203.777,283.418 203.703,284.167 203.713,287.544C203.724,291.388 204.292,295.552 204.906,296.292C205.05,296.465 204.942,297.105 204.63,297.925C203.696,300.384 203.017,304.537 202.85,308.817C202.693,312.839 202.669,312.969 201.713,315.051C201.176,316.22 200.416,318.145 200.025,319.328L199.314,321.479L199.857,324.091C200.46,326.992 201.519,330.395 202.306,331.962C202.749,332.844 202.769,333.04 202.448,333.361C201.794,334.015 201.272,333.471 200.426,331.25C199.202,328.038 198.384,324.605 197.609,319.426C196.593,312.637 195.135,304.01 194.568,301.435C193.713,297.547 193.034,293.458 192.32,287.897C191.939,284.938 191.224,280.433 190.73,277.887C190.237,275.34 189.59,271.792 189.294,270.001C188.943,267.88 188.501,266.221 188.026,265.239L187.298,263.731L187.148,266.909C187.022,269.574 186.886,270.331 186.306,271.598C185.176,274.065 183.463,274.743 181.169,273.633C178.762,272.467 176.167,268.505 175.406,264.83C175.199,263.833 174.975,262.962 174.907,262.894C174.84,262.827 174.45,263.464 174.041,264.31C173.106,266.246 173.109,267.651 174.059,272.727C174.972,277.602 176.193,282.395 178.17,288.867C181.883,301.019 183.027,305.549 184.384,313.473C185.454,319.718 186.983,325.261 188.858,329.691C189.604,331.452 189.578,331.862 188.723,331.862C188.06,331.862 187.407,330.43 185.766,325.379C184.486,321.444 183.639,317.789 182.515,311.356C181.603,306.138 180.049,300.079 177.256,290.851C173.992,280.066 172.779,274.937 171.819,267.855C171.654,266.631 171.224,264.848 170.864,263.894C170.239,262.231 168.683,259.503 168.478,259.708C168.424,259.762 168.514,260.75 168.677,261.903C169.058,264.6 168.675,266.684 167.565,267.948C166.499,269.163 165.528,269.502 163.493,269.373C160.233,269.165 158.677,267.389 156.579,261.483C156.218,260.465 155.825,262.385 155.725,265.658C155.582,270.356 156.027,274.267 157.267,279.21C160.081,290.426 163.714,306.908 165.074,314.627C166.171,320.859 166.727,323.332 168.044,327.851C168.839,330.579 168.934,331.155 168.621,331.352C168.416,331.482 168.129,331.551 167.983,331.505C167.246,331.271 165.087,323.082 163.73,315.371C162.571,308.789 161.524,303.79 159.108,293.3C155.306,276.799 154.496,274.048 153.051,272.742L152.482,272.228L152.692,273.404C152.807,274.05 152.897,275.353 152.891,276.299C152.872,279.501 151.516,281.011 148.437,281.258C146.3,281.43 145.353,280.953 144.21,279.131C143.452,277.922 142.317,275.528 141.826,274.1C141.362,272.753 140.599,275.443 140.599,278.423C140.599,279.432 141.25,284.933 142.046,290.647C142.842,296.362 144.162,305.919 144.979,311.886C145.796,317.852 146.729,324.324 147.051,326.267C147.59,329.519 147.61,329.999 147.293,332.308C147.104,333.687 146.852,336.982 146.734,339.63C146.558,343.578 146.431,344.593 146.029,345.274C145.556,346.073 144.654,346.678 143.933,346.678C143.172,346.678 141.275,345.075 140.188,343.513C138.684,341.351 137.71,338.971 135.666,332.465C133.844,326.661 132.525,323.537 130.873,321.113C127.377,315.986 118.485,310.953 113.484,311.272C112.051,311.363 110.16,312.094 110.494,312.428C110.551,312.485 111.675,312.399 112.993,312.237C114.311,312.075 115.673,312.015 116.021,312.104C117.185,312.402 120.623,319.161 120.93,321.753C121.109,323.262 120.568,324.746 119.61,325.374C119.247,325.611 118.153,325.938 117.179,326.099L115.408,326.393L115.588,328.664C116.067,334.724 116.347,335.55 119.643,340.649C123.316,346.332 123.522,346.9 124.877,355.145C125.835,360.973 127.04,365.328 128.283,367.448C128.624,368.03 130.693,371.089 132.881,374.246C136.678,379.726 144.723,390.674 144.723,390.674L143.311,390.674C143.311,390.674 137.785,383.857 131.462,374.724C125.743,366.465 125.069,364.839 123.55,355.629C122.257,347.791 121.834,346.533 119.163,342.573C117.074,339.475 115.26,336.134 114.955,334.823C114.797,334.14 114.501,331.961 114.298,329.98L113.929,326.379L112.088,323.895C111.075,322.529 109.504,320.28 108.596,318.897C106.727,316.05 106.638,315.381 107.875,313.468C109.849,310.414 110.904,309.784 114.008,309.806C116.546,309.823 119.036,310.595 122.526,312.446C127.454,315.061 129.782,317.014 132.1,320.48C134.016,323.343 135.156,326.071 137.172,332.612C138.054,335.473 139.308,338.918 139.959,340.265C141.24,342.917 143.053,345.091 143.984,345.091C144.966,345.091 145.188,344.152 145.388,339.138C145.493,336.518 145.717,333.354 145.886,332.107C146.162,330.06 146.126,329.413 145.521,325.492C145.152,323.102 144.313,317.277 143.658,312.547C143.002,307.818 141.79,299.126 140.963,293.233C138.914,278.62 138.842,275.679 140.448,272.245C140.801,271.492 141.157,270.557 141.24,270.168C141.671,268.161 143.844,266.961 147.012,266.98C149.432,266.994 150.554,267.539 151.526,269.168C151.864,269.735 152.64,270.561 153.249,271.002L154.357,271.805L154.341,270.149C154.332,269.239 154.235,267.944 154.124,267.272C153.881,265.799 154.389,262.02 155.133,259.767C155.422,258.891 155.719,257.871 155.794,257.498C156.211,255.413 158.779,253.622 161.735,253.354C163.11,253.229 163.537,253.308 164.792,253.922C165.594,254.315 166.52,255.016 166.85,255.48C167.179,255.944 168.164,257.106 169.039,258.064C169.956,259.068 171.014,260.607 171.54,261.702C172.041,262.745 172.517,263.595 172.598,263.591C172.782,263.58 174.075,261.56 175.127,259.639C176.301,257.495 177.85,256.616 180.662,256.498C182.516,256.42 182.944,256.491 183.886,257.027C185.208,257.78 186.21,258.934 186.903,260.5C187.189,261.147 187.603,261.826 187.822,262.008C189.184,263.138 190.314,266.459 190.975,271.272C191.2,272.917 191.318,273.572 192.07,277.358C192.859,281.333 192.869,281.388 193.104,283.004C193.207,283.708 193.327,284.482 193.373,284.724C193.418,284.965 193.535,285.877 193.634,286.75C193.803,288.25 193.881,288.866 194.163,290.917C194.228,291.39 194.355,292.373 194.447,293.1C194.538,293.828 195.138,297.073 195.78,300.312C196.423,303.551 197.006,306.527 197.077,306.927C197.148,307.326 197.319,308.248 197.457,308.975C197.595,309.703 197.79,311.013 197.89,311.886C197.99,312.759 198.11,313.537 198.155,313.615C198.201,313.693 198.32,314.466 198.419,315.334C198.64,317.268 198.944,317.958 199.23,317.177C199.336,316.886 199.88,315.649 200.438,314.428C201.405,312.312 201.453,312.081 201.453,309.481C201.453,306.018 202.081,301.19 202.854,298.72C203.396,296.986 203.42,296.679 203.113,295.481C202.518,293.159 202.187,289.377 202.297,286.165C202.417,282.674 202.965,280.946 204.382,279.588C204.808,279.18 205.157,278.694 205.157,278.508C205.157,278.007 206.707,276.332 207.595,275.873C208.02,275.653 208.985,275.458 209.739,275.439C213.695,275.339 215.945,276.79 216.818,280.003C216.998,280.668 217.172,283.239 217.21,285.824C217.249,288.371 217.35,290.931 217.437,291.513C217.523,292.095 217.643,295.012 217.704,297.995C217.764,300.978 217.907,304.133 218.021,305.006C218.269,306.907 218.288,311.779 218.053,313.076C217.611,315.515 216.945,318.547 215.322,325.512C215.101,326.458 214.807,327.886 214.668,328.687C214.529,329.487 214.115,331.571 213.748,333.317C213.149,336.165 212.367,340.187 211.768,343.503C211.649,344.158 211.411,345.468 211.238,346.414C210.864,348.457 210.855,348.923 211.15,351.176C211.5,353.858 211.365,358.915 210.853,362.289C210.798,362.653 210.682,363.546 210.595,364.273C210.375,366.12 209.676,369.178 208.494,373.467C207.972,375.358 206.684,378.742 205.516,381.292C204.525,383.454 205.421,390.674 205.421,390.674Z"/>
                            </g>
                        </g>
                        <g transform="matrix(3.77953,0,0,3.77953,1104.88,254.296)">
                            <path d="M166.496,268.12C168.144,266.947 168.573,263.636 167.584,259.739C166.626,255.966 164.664,254.164 161.808,254.436C158.809,254.721 156.738,256.48 156.738,258.742C156.738,260.761 158.692,265.599 160.129,267.138C161.783,268.91 164.745,269.367 166.496,268.12Z" style="fill:rgb(151,214,245);"/>
                        </g>
                        <g transform="matrix(3.77953,0,0,3.77953,1104.88,254.296)">
                            <path d="M118.163,325.237C119.712,324.806 120.297,323.848 120.176,321.94C120.068,320.246 119.257,318.244 117.255,314.73L116.163,312.812L114.413,312.812C110.867,312.812 108.055,314.098 108.055,315.72C108.055,316.391 109.868,319.252 113.044,323.593L114.447,325.512L115.815,325.511C116.567,325.51 117.624,325.387 118.163,325.237L118.163,325.237Z" style="fill:rgb(119,171,255);"/>
                        </g>
                        <g transform="matrix(3.77953,0,0,3.77953,1104.88,254.296)">
                            <path d="M214.056,290.971C215.574,290.012 216.572,285.308 216.03,281.665C215.455,277.8 214.043,276.563 210.211,276.565C208.042,276.566 207.035,277.119 206.251,278.738C205.169,280.974 205.633,286.051 207.156,288.651C208.594,291.105 212.021,292.258 214.056,290.971Z" style="fill:rgb(189,224,191);"/>
                        </g>
                        <g transform="matrix(3.77953,0,0,3.77953,1104.88,254.296)">
                            <path d="M150.406,279.961C152.16,278.976 152.615,276.919 151.863,273.37C151.356,270.98 150.467,269.196 149.485,268.597C148.374,267.919 145.63,267.927 144.122,268.611C141.962,269.592 141.644,271.652 143.105,275.199C144.1,277.615 145.44,279.867 146.119,280.263C146.934,280.739 149.321,280.571 150.406,279.961Z" style="fill:rgb(89,133,191);"/>
                        </g>
                        <g transform="matrix(3.77953,0,0,3.77953,1104.88,254.296)">
                            <path d="M184.843,272.666C186.052,271.516 186.505,269.718 186.494,266.113C186.481,262.143 185.972,260.226 184.552,258.807C183.795,258.05 183.275,257.783 182.26,257.63C180.701,257.396 178.325,257.831 177.376,258.524C174.579,260.565 175.578,267.096 179.312,271.182C180.825,272.837 182.435,273.738 183.461,273.503C183.825,273.419 184.447,273.043 184.843,272.666Z" style="fill:rgb(255,232,160);"/>
                        </g>
                    </g>
                    <g id="Left" transform="matrix(1,0,0,1,-109.176,0)">
                        <g>
                            <g transform="matrix(2.33231,0,0,2.33231,440.957,565.814)">
                                <path d="M266.268,487.625L267.14,480.078C259.647,469.023 251.199,441.518 252.821,422.935C249.914,407.301 244.571,393.613 242.985,383.708C242.695,381.9 242.578,381.941 237.958,367.811C236.549,363.499 236.859,313.442 236.859,313.442C241.341,300.656 264.551,305.907 257.663,339.214C260.264,347.028 262.812,355.44 262.628,363.356C262.568,365.95 264.878,369.482 269.21,377.388C270.268,364.561 276.486,309.804 277.679,296.539C277.679,296.539 281.464,273.788 291.681,273.387C298.585,271.092 305.738,286.276 305.738,286.276C306.618,283.717 316.129,264.197 324.324,266.591C334.344,269.518 334.706,282.714 334.681,299.456C338.23,296.706 340.053,285.173 349.098,286.93C352.883,287.666 359.598,292.706 359.5,302.563C360.168,304.799 355.137,379.675 353.777,388.475C355.469,405.322 356.864,412.312 358.802,413.312C361.2,414.548 365.007,408.808 365.007,408.808C368.831,404.298 369.994,385.078 378.381,370.351C382.464,363.181 384.554,363.348 394.765,356.292C397.816,354.184 415.075,348.988 415.662,362.749C413.454,369.715 403.637,378.009 405.307,386.627C406.286,391.679 400.828,402.485 395.268,412.831C391.259,420.29 395.931,431.994 389.316,445.354C387.559,448.903 381.702,459.016 378.995,463.488C370.63,477.306 364.698,487.625 364.698,487.625L266.268,487.625Z" style="fill:rgb(230,230,230);fill-opacity:0.8;"/>
                            </g>
                            <g transform="matrix(3.77953,0,0,3.77953,1104.88,254.296)">
                                <path d="M48.873,383.332C48.873,383.332 63.411,358.154 63.737,357.415C64.671,355.299 65.408,351.979 65.848,347.913C66.623,340.739 66.829,339.192 67.196,337.783C67.588,336.277 69.046,333.252 71.262,329.348C73.154,326.014 73.604,324.291 73.728,319.921L73.83,316.315L72.123,316.14C69.094,315.83 68.103,314.853 68.103,312.179C68.103,310.484 68.954,307.933 70.65,304.548C72.006,301.841 72.045,301.821 75.676,302.038C77.041,302.119 78.157,302.139 78.157,302.082C78.157,301.67 76.207,301.078 74.85,301.078C72.139,301.077 69.043,302.359 64.601,305.325C58.873,309.148 56.628,312.915 54.192,322.784C52.571,329.356 51.857,331.582 50.588,334.037C48.373,338.318 45.6,339.404 44.196,336.54C43.702,335.534 43.506,334.281 42.976,328.751C42.819,327.113 42.508,324.889 42.284,323.808C41.918,322.037 41.918,321.402 42.29,317.393C42.628,313.748 43.736,299.379 45.582,274.712C45.723,272.817 45.733,270.467 45.606,269.21C45.38,266.993 44.927,265.183 44.6,265.191C44.503,265.194 44.149,266.057 43.814,267.11C43.038,269.552 41.709,272.015 40.815,272.671C39.256,273.814 36.102,273.456 34.613,271.967C33.534,270.888 33.059,268.811 33.325,266.333C33.54,264.324 33.313,264.278 32.238,266.112C31.803,266.854 31.322,268.45 30.906,270.53C29.831,275.903 26.112,298.602 25.539,303.287C25.245,305.688 24.811,309.26 24.573,311.224C24.116,315.016 22.857,321.763 22.278,323.527C22.027,324.292 21.784,324.586 21.403,324.586C20.693,324.586 20.728,323.792 21.609,319.955C22.342,316.767 22.915,312.93 24.041,303.684C24.75,297.853 27.153,282.879 28.946,273.114C29.925,267.783 30.003,267.013 30.003,262.618C30.003,258.473 29.79,255.918 29.308,254.269C29.1,253.561 28.79,253.924 28.406,255.324C27.529,258.521 26.229,260.662 24.576,261.63C22.318,262.953 19.568,262.721 18.132,261.085C17.047,259.849 16.722,258.467 16.822,255.502C16.868,254.134 16.833,253.015 16.744,253.015C16.445,253.016 14.972,256.045 14.557,257.514C14.33,258.314 14.016,260.517 13.858,262.409C13.322,268.851 12.457,274.105 10.784,281.062C7.499,294.73 6.525,299.781 5.658,307.647C5.354,310.408 4.806,314.099 4.441,315.849C3.766,319.086 2.136,324.947 1.667,325.823C1.376,326.368 0.47,326.474 0.306,325.982C0.246,325.804 0.651,324.27 1.205,322.572C2.474,318.681 3.663,312.776 4.21,307.652C5.063,299.665 5.721,296.118 8.598,283.996C10.635,275.414 11.798,269.025 12.286,263.731C12.601,260.305 12.6,260.286 11.94,258.837C11.575,258.036 11.088,257.143 10.858,256.852C10.453,256.339 10.44,256.348 10.432,257.141C10.404,259.883 8.465,264.437 6.481,266.421C2.526,270.377 -0.987,267.897 -1.451,260.821L-1.625,258.175L-2.185,259.234C-2.823,260.44 -3.23,262.319 -3.475,265.187C-3.569,266.278 -3.932,269.292 -4.283,271.885C-4.634,274.477 -5.103,279.299 -5.326,282.6C-5.548,285.901 -6.033,290.864 -6.402,293.629C-7.396,301.062 -8.009,306.632 -8.617,313.738C-9.167,320.165 -9.88,324.188 -10.992,327.141C-11.573,328.681 -11.979,329.068 -12.608,328.679C-12.906,328.494 -12.869,328.165 -12.395,326.785C-11.567,324.375 -11.049,322.18 -10.597,319.151L-10.199,316.49L-11.396,313.659C-12.055,312.101 -13.01,310.137 -13.52,309.293C-14.293,308.013 -14.447,307.506 -14.447,306.243C-14.447,302.603 -15.426,297.232 -16.65,294.159C-17.444,292.165 -17.472,291.98 -17.136,290.984C-16.659,289.573 -16.42,282.426 -16.784,280.49C-16.94,279.666 -17.272,278.535 -17.523,277.976L-17.98,276.961L-18.178,279.309C-18.474,282.81 -19.409,285.173 -21.051,286.567C-21.938,287.321 -23.777,287.972 -25.045,287.982C-26.414,287.992 -27.383,287.548 -28.261,286.506C-28.703,285.981 -28.719,286.433 -28.603,296.428C-28.465,308.402 -28.531,307.899 -25.964,316.516C-24.058,322.916 -22.889,327.223 -20.507,336.624L-18.865,343.106L-18.813,347.737C-18.706,357.413 -15.927,367.98 -11.262,376.458C-11.262,376.458 -10.536,377.665 -10.42,378.366C-10.298,379.107 -10.88,383.332 -10.88,383.332L-11.706,383.332C-11.706,383.332 -10.942,379.7 -11.662,378.414C-13.819,374.559 -17.077,367.057 -18.276,362.309C-19.585,357.123 -20.085,353.42 -20.156,348.398L-20.223,343.636L-21.715,337.683C-23.818,329.296 -25.057,324.717 -27.155,317.574C-28.159,314.154 -29.178,310.463 -29.419,309.372C-29.869,307.329 -30.023,301.732 -30.141,283.046C-30.141,283.046 -30.648,276.168 -29.528,274.193C-28.411,272.22 -26.378,271.207 -23.425,271.192C-21.608,271.182 -19.965,272.022 -19.15,273.379C-18.84,273.894 -18.09,274.857 -17.482,275.519C-15.697,277.464 -15.027,280.295 -15.139,285.427C-15.199,288.187 -15.258,288.853 -15.647,291.168C-15.765,291.865 -15.62,292.7 -15.145,294.078C-13.89,297.714 -12.941,303.075 -13.056,305.884C-13.092,306.789 -12.838,307.53 -11.831,309.456C-11.132,310.792 -10.498,312.064 -10.423,312.283C-10.122,313.157 -9.929,312.144 -9.415,307.004C-9.12,304.051 -8.53,299.05 -8.105,295.892C-7.362,290.38 -7.121,287.915 -6.497,279.474C-6.342,277.364 -5.979,273.974 -5.692,271.94C-5.406,269.907 -5.052,266.784 -4.908,265.002C-4.6,261.216 -3.95,258.881 -2.674,256.985C-2.169,256.236 -1.616,255.154 -1.445,254.582C-1.049,253.262 0.475,251.468 1.602,250.997C3,250.413 6.492,250.525 7.928,251.2C9.039,251.722 10.424,253.252 10.424,253.957C10.424,254.116 10.729,254.533 11.102,254.883C11.474,255.234 12.025,255.918 12.326,256.404C12.952,257.417 13.07,257.343 13.724,255.529C14.328,253.854 15.103,252.53 16.552,250.692C18.795,247.848 20.015,246.74 21.272,246.401C22.703,246.015 24.9,246.226 26.41,246.894C27.672,247.452 29.133,249.012 29.361,250.044C29.448,250.442 29.806,251.481 30.155,252.354C31.124,254.775 31.332,255.988 31.506,260.22L31.667,264.116L32.621,263.288C33.145,262.833 33.738,262.151 33.937,261.773C34.507,260.692 35.614,259.598 36.543,259.201C37.563,258.764 40.313,258.727 41.764,259.13C43.013,259.477 44.453,260.835 44.705,261.903C44.805,262.327 45.209,263.209 45.604,263.865C46.806,265.859 47.186,268.194 47.048,272.727C46.982,274.91 46.882,277.172 46.825,277.754C46.768,278.336 46.64,279.884 46.54,281.194C46.44,282.504 46.319,284.051 46.271,284.634C46.223,285.216 46.111,286.704 46.023,287.941C45.935,289.178 45.807,290.934 45.738,291.843C45.669,292.753 45.553,294.301 45.48,295.283C45.406,296.265 45.288,297.843 45.216,298.789C45.145,299.735 45.029,301.282 44.958,302.228C44.888,303.174 44.768,304.722 44.693,305.668C44.617,306.614 44.494,308.221 44.419,309.24C44.206,312.128 43.885,315.864 43.59,318.897C43.321,321.661 43.324,321.868 43.66,323.395C43.837,324.195 44.061,325.493 44.158,326.279C44.256,327.065 44.38,327.937 44.434,328.217C44.488,328.496 44.599,329.818 44.681,331.153C45.024,336.756 45.787,337.828 47.824,335.574C49.743,333.449 50.64,331.09 52.855,322.337C54.493,315.861 55.516,313.232 57.635,310.048C59.278,307.578 60.823,306.101 64.002,303.962C70.61,299.514 75.941,298.444 78.97,300.957C79.732,301.589 81.597,304.706 81.597,305.347C81.597,305.908 80.46,308.129 79.152,310.125C78.899,310.511 78.609,311.006 78.507,311.224C78.177,311.934 75.974,315.321 75.746,315.469C75.378,315.708 74.969,319.356 75.144,320.842C75.456,323.5 74.1,327.498 71.271,332.258C70.58,333.42 69.603,335.374 68.889,337.021C68.423,338.095 67.974,340.762 67.686,344.165C67.277,348.993 67.063,350.595 66.485,353.161C66.19,354.47 65.713,356.197 65.425,356.997C64.965,358.277 62.732,362.395 61.426,364.372C61.173,364.754 60.844,365.305 60.694,365.596C60.545,365.887 60.187,366.482 59.9,366.919C59.613,367.355 59.287,367.893 59.176,368.114C59.065,368.334 57.963,370.18 56.726,372.215C53.738,377.131 53.877,376.9 53.558,377.502C53.404,377.793 53.05,378.389 52.772,378.825C52.493,379.262 49.778,383.332 49.778,383.332L48.873,383.332Z"/>
                            </g>
                        </g>
                        <g transform="matrix(3.77953,0,0,3.77953,1104.88,254.296)">
                            <path d="M76.843,311.829C81.017,305.43 81.227,304.715 79.282,303.508C78.432,302.981 77.866,302.879 75.34,302.797L72.391,302.702L71.717,303.854C70.717,305.563 68.919,310.19 68.736,311.527C68.515,313.14 69.136,314.564 70.276,315.059C70.754,315.267 71.895,315.441 72.81,315.447L74.475,315.458L76.843,311.829Z" style="fill:rgb(119,171,255);"/>
                        </g>
                        <g transform="matrix(3.77953,0,0,3.77953,1104.88,254.296)">
                            <path d="M-22.914,286.61C-20.515,285.385 -19.431,283.185 -19.27,279.21C-19.082,274.551 -20.27,272.593 -23.284,272.596C-27.813,272.601 -29.521,274.708 -29.176,279.864C-28.756,286.148 -26.586,288.484 -22.914,286.61Z" style="fill:rgb(237,51,69);"/>
                        </g>
                        <g transform="matrix(3.77953,0,0,3.77953,1104.88,254.296)">
                            <path d="M4.317,267.182C6.316,266.148 8.763,262.269 9.374,259.166C9.805,256.976 9.611,254.529 8.935,253.624C7.923,252.269 7.137,251.888 5.082,251.756C2.753,251.606 1.538,252.027 0.563,253.319C-0.403,254.597 -0.686,255.938 -0.687,259.244C-0.691,265.565 1.31,268.737 4.317,267.182Z" style="fill:rgb(250,167,29);"/>
                        </g>
                        <g transform="matrix(3.77953,0,0,3.77953,1104.88,254.296)">
                            <path d="M40.234,272.082C40.789,271.744 41.337,271.006 41.856,269.9C44.927,263.356 44.29,260.449 39.68,259.973C37.878,259.787 36.515,260.245 35.712,261.306C34.178,263.331 33.55,268.864 34.642,270.743C35.66,272.495 38.457,273.165 40.234,272.082Z" style="fill:rgb(0,175,235);"/>
                        </g>
                        <g transform="matrix(3.77953,0,0,3.77953,1104.88,254.296)">
                            <path d="M23.853,261.185C26.869,259.725 29.483,251.799 27.74,249.398C26.913,248.259 24.999,247.415 23.146,247.373C21.786,247.342 21.412,247.447 20.431,248.136C19.686,248.66 19.029,249.453 18.525,250.438C17.84,251.779 17.743,252.277 17.628,255.074C17.514,257.838 17.563,258.354 18.044,259.442C19.029,261.667 21.392,262.376 23.853,261.185Z" style="fill:rgb(112,194,123);"/>
                        </g>
                    </g>
                </g>
            </g>
        </g>
    </g>
</svg>